<svg xmlns="http://www.w3.org/2000/svg" role="img" viewBox="25.94 25.94 73.87 81.12"><style>svg {fill:#e37933}</style><path d="M62.892 105.624L75.92 57.573H49.865z" class="logo-svg-shape logo-dark-orange-shape" color="currentColor"/><path d="M62.892 105.624L49.865 57.573H31.606z" class="logo-svg-shape logo-orange-shape" color="currentColor"/><path d="M31.607 57.573l-3.96 14.602c-.36 1.332.035 2.791.98 3.614l34.265 29.835z" class="logo-svg-shape logo-light-orange-shape" color="currentColor"/><path d="M31.607 57.573h18.258l-7.847-28.94c-.404-1.49-2.162-1.49-2.565 0z" class="logo-svg-shape logo-dark-orange-shape" color="currentColor"/><path d="M62.892 105.624L75.92 57.573h18.258z" class="logo-svg-shape logo-orange-shape" color="currentColor"/><path d="M94.178 57.573l3.959 14.602c.361 1.332-.034 2.791-.98 3.614l-34.265 29.835z" class="logo-svg-shape logo-light-orange-shape" color="currentColor"/><path d="M94.178 57.573H75.92l7.847-28.94c.403-1.49 2.161-1.49 2.565 0z" class="logo-svg-shape logo-dark-orange-shape" color="currentColor"/></svg>