<svg xmlns="http://www.w3.org/2000/svg" role="img" viewBox="9.58 6.64 12.78 18.66"><style>svg {fill:#cc3e44}</style><g id="Java"><path id="Vector" d="M22.0025 18.236c-.0225.764.0187 1.7791-.281 2.6404-.2622.8614-.7116 1.6292-1.3483 2.3033-.6366.6368-1.367 1.1237-2.1909 1.4607C17.3583 24.94 16.73 25 15.598 25s-2.1349-.1161-3.1461-.5282c-.9738-.4494-1.7977-1.0861-2.4719-1.91l2.0225-2.5842c.412.5242.9176.9363 1.5168 1.236.5993.2995 1.2547.4494 1.9663.4494.9363 0 1.6667-.2998 2.191-.899.5244-.6366.7865-1.573.7865-2.8089V7h3.5394v11.236z" color="currentColor"/></g></svg>